<svg xmlns="http://www.w3.org/2000/svg" xmlns:xlink="http://www.w3.org/1999/xlink" width="500" zoomAndPan="magnify" viewBox="0 0 375 374.999991" height="500" preserveAspectRatio="xMidYMid meet" version="1.0"><defs><clipPath id="ae20c8f695"><path d="M 175 32 L 343.625 32 L 343.625 249 L 175 249 Z M 175 32 " clip-rule="nonzero"/></clipPath><clipPath id="5584d408ba"><path d="M 32 31.625 L 249 31.625 L 249 200 L 32 200 Z M 32 31.625 " clip-rule="nonzero"/></clipPath><clipPath id="61b3a9c624"><path d="M 126 175 L 343.625 175 L 343.625 343.625 L 126 343.625 Z M 126 175 " clip-rule="nonzero"/></clipPath><clipPath id="57a7de9d29"><path d="M 31.625 126 L 200 126 L 200 343.625 L 31.625 343.625 Z M 31.625 126 " clip-rule="nonzero"/></clipPath><clipPath id="261ef8d7ed"><path d="M 173 13.105469 L 361.855469 13.105469 L 361.855469 256 L 173 256 Z M 173 13.105469 " clip-rule="nonzero"/></clipPath><clipPath id="0083cfa360"><path d="M 13.105469 13.105469 L 256 13.105469 L 256 202 L 13.105469 202 Z M 13.105469 13.105469 " clip-rule="nonzero"/></clipPath><clipPath id="21b439c26f"><path d="M 119 173 L 361.855469 173 L 361.855469 361.855469 L 119 361.855469 Z M 119 173 " clip-rule="nonzero"/></clipPath><clipPath id="3af4c2c4f1"><path d="M 13.105469 119 L 202 119 L 202 361.855469 L 13.105469 361.855469 Z M 13.105469 119 " clip-rule="nonzero"/></clipPath></defs><g clip-path="url(#ae20c8f695)"><path fill="#0f1120" d="M 187.417969 242.453125 C 184.109375 242.453125 181.429688 239.769531 181.429688 236.464844 C 181.429688 233.15625 184.109375 230.476562 187.417969 230.476562 C 190.726562 230.476562 193.40625 233.15625 193.40625 236.464844 C 193.40625 239.769531 190.726562 242.453125 187.417969 242.453125 Z M 343.582031 184.339844 L 343.589844 184.339844 C 343.578125 183.851562 343.5625 183.363281 343.546875 182.878906 C 343.546875 182.875 343.546875 182.867188 343.546875 182.863281 C 343.316406 175.289062 342.554688 167.851562 341.285156 160.582031 L 316.636719 160.582031 C 313.234375 144.253906 306.804688 129.035156 297.964844 115.535156 L 315.390625 98.105469 C 304.960938 83.25 292.003906 70.292969 277.144531 59.863281 L 259.714844 77.289062 C 246.21875 68.449219 231 62.019531 214.667969 58.613281 L 214.667969 33.96875 C 210.246094 33.195312 205.761719 32.609375 201.21875 32.214844 L 201.21875 78.34375 C 254.074219 84.851562 295.335938 128.8125 297.636719 182.863281 L 265.613281 182.863281 L 223.90625 231.25 L 198.089844 231.25 C 196.15625 227.300781 192.109375 224.574219 187.417969 224.574219 C 180.851562 224.574219 175.53125 229.898438 175.53125 236.464844 C 175.53125 243.027344 180.851562 248.351562 187.417969 248.351562 C 192.273438 248.351562 196.445312 245.433594 198.289062 241.257812 L 228.492188 241.257812 L 270.203125 192.875 L 343.527344 192.875 C 343.585938 191.132812 343.625 189.382812 343.625 187.625 C 343.625 186.527344 343.609375 185.433594 343.582031 184.339844 " fill-opacity="1" fill-rule="nonzero"/></g><g clip-path="url(#5584d408ba)"><path fill="#0f1120" d="M 182.863281 77.625 L 182.863281 109.636719 L 231.25 151.347656 L 231.25 177.164062 C 227.300781 179.097656 224.574219 183.144531 224.574219 187.835938 C 224.574219 194.402344 229.894531 199.722656 236.460938 199.722656 C 243.03125 199.722656 248.351562 194.402344 248.351562 187.835938 C 248.351562 182.976562 245.433594 178.808594 241.257812 176.964844 L 241.257812 146.761719 L 192.875 105.046875 L 192.875 31.722656 C 191.132812 31.664062 189.382812 31.625 187.625 31.625 C 186.464844 31.625 185.308594 31.648438 184.15625 31.675781 L 184.152344 31.664062 C 176.132812 31.839844 168.261719 32.625 160.582031 33.96875 L 160.582031 58.613281 C 144.253906 62.019531 129.035156 68.449219 115.535156 77.289062 L 98.109375 59.863281 C 83.246094 70.292969 70.292969 83.25 59.863281 98.105469 L 77.289062 115.535156 C 68.449219 129.035156 62.019531 144.253906 58.613281 160.582031 L 33.96875 160.582031 C 33.195312 165.003906 32.609375 169.492188 32.214844 174.035156 L 78.34375 174.035156 C 84.851562 121.179688 128.8125 79.929688 182.863281 77.625 " fill-opacity="1" fill-rule="nonzero"/></g><g clip-path="url(#61b3a9c624)"><path fill="#0f1120" d="M 192.390625 297.636719 L 192.390625 265.617188 L 144.003906 223.90625 L 144.003906 198.089844 C 147.953125 196.15625 150.675781 192.109375 150.675781 187.417969 C 150.675781 180.851562 145.355469 175.53125 138.789062 175.53125 C 132.222656 175.53125 126.902344 180.851562 126.902344 187.417969 C 126.902344 192.273438 129.820312 196.445312 133.992188 198.289062 L 133.992188 228.492188 L 182.378906 270.203125 L 182.378906 343.527344 C 184.121094 343.589844 185.867188 343.625 187.625 343.625 C 188.765625 343.625 189.902344 343.605469 191.035156 343.578125 L 191.039062 343.589844 C 199.082031 343.414062 206.972656 342.628906 214.667969 341.285156 L 214.667969 316.636719 C 231 313.234375 246.21875 306.804688 259.714844 297.964844 L 277.144531 315.390625 C 292.003906 304.960938 304.960938 292.003906 315.390625 277.144531 L 297.964844 259.71875 C 306.800781 246.21875 313.234375 231 316.636719 214.667969 L 341.285156 214.667969 C 342.058594 210.246094 342.644531 205.757812 343.039062 201.21875 L 296.910156 201.21875 C 290.402344 254.078125 246.4375 295.335938 192.390625 297.636719 " fill-opacity="1" fill-rule="nonzero"/></g><g clip-path="url(#57a7de9d29)"><path fill="#0f1120" d="M 187.835938 132.800781 C 191.144531 132.800781 193.824219 135.480469 193.824219 138.789062 C 193.824219 142.097656 191.144531 144.777344 187.835938 144.777344 C 184.527344 144.777344 181.847656 142.097656 181.847656 138.789062 C 181.847656 135.480469 184.527344 132.800781 187.835938 132.800781 Z M 77.613281 192.390625 L 109.636719 192.390625 L 151.347656 144.003906 L 177.164062 144.003906 C 179.097656 147.953125 183.144531 150.675781 187.835938 150.675781 C 194.402344 150.675781 199.722656 145.351562 199.722656 138.789062 C 199.722656 132.222656 194.402344 126.902344 187.835938 126.902344 C 182.976562 126.902344 178.808594 129.816406 176.964844 133.992188 L 146.761719 133.992188 L 105.050781 182.378906 L 31.722656 182.378906 C 31.664062 184.121094 31.625 185.871094 31.625 187.625 C 31.625 188.765625 31.648438 189.902344 31.671875 191.035156 L 31.664062 191.039062 C 31.835938 199.082031 32.621094 206.972656 33.96875 214.667969 L 58.613281 214.667969 C 62.019531 231 68.449219 246.21875 77.289062 259.71875 L 59.863281 277.144531 C 70.292969 292.003906 83.246094 304.960938 98.109375 315.390625 L 115.535156 297.964844 C 129.035156 306.804688 144.253906 313.234375 160.582031 316.636719 L 160.582031 341.285156 C 165.003906 342.058594 169.492188 342.644531 174.035156 343.039062 L 174.035156 296.910156 C 121.175781 290.402344 79.914062 246.441406 77.613281 192.390625 " fill-opacity="1" fill-rule="nonzero"/></g><path fill="#0f1120" d="M 187.25 253.398438 C 183.273438 253.398438 180.050781 250.171875 180.050781 246.199219 C 180.050781 242.222656 183.273438 239 187.25 239 C 191.222656 239 194.445312 242.222656 194.445312 246.199219 C 194.445312 250.171875 191.222656 253.398438 187.25 253.398438 Z M 374.945312 183.550781 L 374.957031 183.546875 C 374.941406 182.960938 374.921875 182.378906 374.902344 181.792969 C 374.902344 181.785156 374.902344 181.78125 374.902344 181.777344 C 374.628906 172.671875 373.710938 163.730469 372.183594 154.996094 L 342.558594 154.996094 C 338.472656 135.367188 330.742188 117.078125 320.117188 100.851562 L 341.0625 79.90625 C 328.527344 62.046875 312.953125 46.472656 295.09375 33.9375 L 274.148438 54.882812 C 257.921875 44.257812 239.632812 36.53125 220.003906 32.4375 L 220.003906 2.8125 C 214.6875 1.886719 209.296875 1.179688 203.835938 0.707031 L 203.835938 56.152344 C 267.367188 63.972656 316.957031 116.808594 319.722656 181.777344 L 281.234375 181.777344 L 231.105469 239.929688 L 200.074219 239.929688 C 197.75 235.183594 192.886719 231.910156 187.25 231.910156 C 179.359375 231.910156 172.960938 238.304688 172.960938 246.199219 C 172.960938 254.085938 179.359375 260.484375 187.25 260.484375 C 193.085938 260.484375 198.101562 256.980469 200.316406 251.964844 L 236.617188 251.964844 L 286.75 193.808594 L 374.882812 193.808594 C 374.953125 191.714844 375 189.613281 375 187.5 C 375 186.179688 374.976562 184.863281 374.945312 183.550781 " fill-opacity="1" fill-rule="nonzero"/><path fill="#0f1120" d="M 181.777344 55.289062 L 181.777344 93.761719 L 239.929688 143.894531 L 239.929688 174.925781 C 235.183594 177.25 231.910156 182.109375 231.910156 187.75 C 231.910156 195.640625 238.304688 202.039062 246.195312 202.039062 C 254.089844 202.039062 260.488281 195.640625 260.488281 187.75 C 260.488281 181.914062 256.980469 176.902344 251.964844 174.683594 L 251.964844 138.382812 L 193.808594 88.246094 L 193.808594 0.117188 C 191.714844 0.046875 189.613281 0 187.5 0 C 186.105469 0 184.714844 0.0234375 183.328125 0.0585938 L 183.328125 0.046875 C 173.683594 0.257812 164.226562 1.203125 154.996094 2.8125 L 154.996094 32.4375 C 135.367188 36.53125 117.078125 44.257812 100.851562 54.882812 L 79.90625 33.9375 C 62.042969 46.472656 46.472656 62.046875 33.9375 79.90625 L 54.882812 100.851562 C 44.257812 117.078125 36.53125 135.367188 32.4375 154.996094 L 2.816406 154.996094 C 1.886719 160.3125 1.179688 165.703125 0.707031 171.164062 L 56.152344 171.164062 C 63.972656 107.632812 116.8125 58.054688 181.777344 55.289062 " fill-opacity="1" fill-rule="nonzero"/><path fill="#0f1120" d="M 193.222656 319.722656 L 193.222656 281.238281 L 135.066406 231.105469 L 135.066406 200.074219 C 139.8125 197.75 143.089844 192.886719 143.089844 187.25 C 143.089844 179.359375 136.691406 172.960938 128.800781 172.960938 C 120.910156 172.960938 114.511719 179.359375 114.511719 187.25 C 114.511719 193.085938 118.019531 198.101562 123.035156 200.316406 L 123.035156 236.617188 L 181.191406 286.75 L 181.191406 374.882812 C 183.285156 374.953125 185.386719 375 187.5 375 C 188.871094 375 190.234375 374.976562 191.597656 374.945312 L 191.601562 374.953125 C 201.265625 374.746094 210.75 373.804688 220.003906 372.183594 L 220.003906 342.5625 C 239.632812 338.46875 257.921875 330.742188 274.144531 320.117188 L 295.09375 341.0625 C 312.953125 328.527344 328.527344 312.953125 341.0625 295.09375 L 320.117188 274.148438 C 330.738281 257.921875 338.472656 239.632812 342.5625 220.003906 L 372.183594 220.003906 C 373.113281 214.6875 373.820312 209.292969 374.292969 203.835938 L 318.847656 203.835938 C 311.027344 267.367188 258.1875 316.960938 193.222656 319.722656 " fill-opacity="1" fill-rule="nonzero"/><path fill="#0f1120" d="M 187.75 121.601562 C 191.726562 121.601562 194.949219 124.824219 194.949219 128.800781 C 194.949219 132.777344 191.726562 136 187.75 136 C 183.773438 136 180.554688 132.777344 180.554688 128.800781 C 180.554688 124.824219 183.773438 121.601562 187.75 121.601562 Z M 55.273438 193.222656 L 93.761719 193.222656 L 143.894531 135.070312 L 174.925781 135.070312 C 177.25 139.816406 182.109375 143.089844 187.75 143.089844 C 195.640625 143.089844 202.039062 136.691406 202.039062 128.800781 C 202.039062 120.910156 195.640625 114.511719 187.75 114.511719 C 181.914062 114.511719 176.902344 118.019531 174.683594 123.035156 L 138.382812 123.035156 L 88.25 181.191406 L 0.117188 181.191406 C 0.046875 183.285156 0 185.386719 0 187.5 C 0 188.871094 0.0234375 190.234375 0.0585938 191.597656 L 0.0429688 191.601562 C 0.253906 201.265625 1.195312 210.75 2.816406 220.003906 L 32.4375 220.003906 C 36.53125 239.632812 44.257812 257.921875 54.882812 274.148438 L 33.9375 295.09375 C 46.472656 312.953125 62.042969 328.527344 79.90625 341.0625 L 100.851562 320.117188 C 117.078125 330.742188 135.367188 338.46875 154.996094 342.5625 L 154.996094 372.183594 C 160.3125 373.113281 165.703125 373.820312 171.164062 374.292969 L 171.164062 318.847656 C 107.632812 311.027344 58.039062 258.191406 55.273438 193.222656 " fill-opacity="1" fill-rule="nonzero"/><g clip-path="url(#261ef8d7ed)"><path fill="#ffffff" d="M 187.25 248.765625 C 183.550781 248.765625 180.554688 245.765625 180.554688 242.070312 C 180.554688 238.371094 183.550781 235.378906 187.25 235.378906 C 190.945312 235.378906 193.941406 238.371094 193.941406 242.070312 C 193.941406 245.765625 190.945312 248.765625 187.25 248.765625 Z M 361.804688 183.808594 L 361.816406 183.804688 C 361.804688 183.261719 361.785156 182.71875 361.765625 182.171875 C 361.765625 182.167969 361.765625 182.164062 361.765625 182.160156 C 361.511719 173.691406 360.65625 165.375 359.238281 157.253906 L 331.6875 157.253906 C 327.886719 139 320.695312 121.988281 310.816406 106.898438 L 330.292969 87.417969 C 318.636719 70.808594 304.152344 56.324219 287.542969 44.667969 L 268.0625 64.148438 C 252.972656 54.265625 235.964844 47.082031 217.710938 43.273438 L 217.710938 15.722656 C 212.765625 14.859375 207.75 14.203125 202.671875 13.761719 L 202.671875 65.328125 C 261.757812 72.601562 307.878906 121.738281 310.449219 182.160156 L 274.65625 182.160156 L 228.03125 236.242188 L 199.175781 236.242188 C 197.015625 231.828125 192.492188 228.78125 187.25 228.78125 C 179.910156 228.78125 173.960938 234.730469 173.960938 242.070312 C 173.960938 249.40625 179.910156 255.359375 187.25 255.359375 C 192.675781 255.359375 197.339844 252.097656 199.402344 247.433594 L 233.160156 247.433594 L 279.78125 193.347656 L 361.746094 193.347656 C 361.8125 191.398438 361.855469 189.445312 361.855469 187.480469 C 361.855469 186.253906 361.835938 185.03125 361.804688 183.808594 " fill-opacity="1" fill-rule="nonzero"/></g><g clip-path="url(#0083cfa360)"><path fill="#3d6fff" d="M 182.15625 64.523438 L 182.15625 100.304688 L 236.242188 146.929688 L 236.242188 175.785156 C 231.828125 177.949219 228.78125 182.46875 228.78125 187.714844 C 228.78125 195.054688 234.730469 201.003906 242.070312 201.003906 C 249.410156 201.003906 255.359375 195.054688 255.359375 187.714844 C 255.359375 182.285156 252.097656 177.625 247.433594 175.5625 L 247.433594 141.800781 L 193.347656 95.175781 L 193.347656 13.214844 C 191.398438 13.148438 189.445312 13.105469 187.480469 13.105469 C 186.183594 13.105469 184.890625 13.128906 183.601562 13.160156 L 183.601562 13.148438 C 174.632812 13.347656 165.835938 14.222656 157.25 15.722656 L 157.25 43.273438 C 139 47.082031 121.988281 54.265625 106.898438 64.148438 L 87.417969 44.667969 C 70.808594 56.324219 56.328125 70.808594 44.667969 87.417969 L 64.148438 106.898438 C 54.265625 121.988281 47.078125 139 43.273438 157.253906 L 15.726562 157.253906 C 14.859375 162.195312 14.203125 167.210938 13.761719 172.289062 L 65.328125 172.289062 C 72.601562 113.207031 121.742188 67.097656 182.15625 64.523438 " fill-opacity="1" fill-rule="nonzero"/></g><g clip-path="url(#21b439c26f)"><path fill="#3d6fff" d="M 192.804688 310.449219 L 192.804688 274.65625 L 138.71875 228.03125 L 138.71875 199.175781 C 143.132812 197.015625 146.179688 192.492188 146.179688 187.25 C 146.179688 179.910156 140.230469 173.960938 132.890625 173.960938 C 125.554688 173.960938 119.605469 179.910156 119.605469 187.25 C 119.605469 192.675781 122.863281 197.339844 127.53125 199.402344 L 127.53125 233.160156 L 181.613281 279.785156 L 181.613281 361.746094 C 183.5625 361.8125 185.515625 361.855469 187.480469 361.855469 C 188.753906 361.855469 190.027344 361.832031 191.292969 361.804688 L 191.296875 361.8125 C 200.285156 361.621094 209.105469 360.742188 217.710938 359.238281 L 217.710938 331.691406 C 235.964844 327.882812 252.976562 320.695312 268.0625 310.816406 L 287.542969 330.296875 C 304.152344 318.636719 318.636719 304.152344 330.296875 287.542969 L 310.816406 268.0625 C 320.695312 252.972656 327.886719 235.964844 331.6875 217.710938 L 359.238281 217.710938 C 360.105469 212.765625 360.757812 207.75 361.199219 202.671875 L 309.636719 202.671875 C 302.363281 261.757812 253.222656 307.878906 192.804688 310.449219 " fill-opacity="1" fill-rule="nonzero"/></g><g clip-path="url(#3af4c2c4f1)"><path fill="#ffffff" d="M 187.714844 126.195312 C 191.410156 126.195312 194.410156 129.195312 194.410156 132.890625 C 194.410156 136.589844 191.410156 139.585938 187.714844 139.585938 C 184.015625 139.585938 181.019531 136.589844 181.019531 132.890625 C 181.019531 129.195312 184.015625 126.195312 187.714844 126.195312 Z M 64.511719 192.804688 L 100.304688 192.804688 L 146.929688 138.722656 L 175.785156 138.722656 C 177.949219 143.132812 182.46875 146.179688 187.714844 146.179688 C 195.054688 146.179688 201.003906 140.230469 201.003906 132.890625 C 201.003906 125.550781 195.054688 119.601562 187.714844 119.601562 C 182.285156 119.601562 177.625 122.863281 175.5625 127.53125 L 141.800781 127.53125 L 95.179688 181.613281 L 13.214844 181.613281 C 13.148438 183.5625 13.105469 185.519531 13.105469 187.480469 C 13.105469 188.753906 13.128906 190.027344 13.160156 191.292969 L 13.148438 191.296875 C 13.34375 200.285156 14.21875 209.105469 15.726562 217.710938 L 43.273438 217.710938 C 47.078125 235.964844 54.265625 252.972656 64.148438 268.0625 L 44.667969 287.542969 C 56.328125 304.152344 70.808594 318.636719 87.417969 330.296875 L 106.898438 310.816406 C 121.988281 320.695312 139 327.882812 157.25 331.691406 L 157.25 359.238281 C 162.195312 360.105469 167.210938 360.757812 172.289062 361.199219 L 172.289062 309.636719 C 113.203125 302.363281 67.082031 253.222656 64.511719 192.804688 " fill-opacity="1" fill-rule="nonzero"/></g></svg>